name rise44.8762peak52.3436fall86.788.mot
datacolumns 19
datarows 32
range 23.00824000000000 23.05991100000000
endheader
time	ground_force1_vx	ground_force1_vy	ground_force1_vz	ground_force1_px	ground_force1_py	ground_force1_pz	ground_force2_vx	ground_force2_vy	ground_force2_vz	ground_force2_px	ground_force2_py	ground_force2_pz	ground_torque1_x	ground_torque1_y	ground_torque1_z	ground_torque2_x	ground_torque2_y	ground_torque2_z	
23.00824000000000	-33.67931400000000	801.04484500000001	55.47206000000000	0.13465600000000	0.00000000000000	0.09231600000000	-6.84920700000000	34.73753200000000	2.88228400000000	0.32361700000000	0.00000000000000	-0.09531700000000	0.00000000000000	21.34754300000000	0.00000000000000	0.00000000000000	0.78937700000000	0.00000000000000	
23.00990700000000	-34.16673400000000	799.10077500000000	55.50285500000000	0.13384800000000	0.00000000000000	0.09228100000000	-7.79393400000000	41.64273900000000	3.32620400000000	0.32979400000000	0.00000000000000	-0.09576000000000	0.00000000000000	21.28183400000000	0.00000000000000	0.00000000000000	0.95549600000000	0.00000000000000	
23.01157500000000	-34.66274900000000	797.02047800000003	55.50834800000000	0.13305100000000	0.00000000000000	0.09224300000000	-8.64505900000000	48.72571900000000	3.74384000000000	0.33539600000000	0.00000000000000	-0.09614000000000	0.00000000000000	21.21300500000000	0.00000000000000	0.00000000000000	1.12507600000000	0.00000000000000	
23.01324200000000	-35.16752600000000	794.80272200000002	55.48768600000000	0.13226500000000	0.00000000000000	0.09220000000000	-9.37401500000000	55.87269000000000	4.12328800000000	0.34051100000000	0.00000000000000	-0.09646800000000	0.00000000000000	21.14111800000000	0.00000000000000	0.00000000000000	1.29417700000000	0.00000000000000	
23.01490900000000	-35.68118700000000	792.44628200000000	55.44006300000000	0.13149100000000	0.00000000000000	0.09215400000000	-9.95932000000000	62.98835200000000	4.45516800000000	0.34521000000000	0.00000000000000	-0.09675500000000	0.00000000000000	21.06623600000000	0.00000000000000	0.00000000000000	1.45923800000000	0.00000000000000	
23.01657400000000	-36.20380700000000	789.94994599999995	55.36472500000000	0.13072900000000	0.00000000000000	0.09210300000000	-10.38730800000000	70.00070900000000	4.73297000000000	0.34954900000000	0.00000000000000	-0.09700800000000	0.00000000000000	20.98841600000000	0.00000000000000	0.00000000000000	1.61726300000000	0.00000000000000	
23.01824700000000	-36.73541000000000	787.31250499999999	55.26097300000000	0.12997900000000	0.00000000000000	0.09204800000000	-10.65211100000000	76.86322100000000	4.95311200000000	0.35357400000000	0.00000000000000	-0.09723300000000	0.00000000000000	20.90771600000000	0.00000000000000	0.00000000000000	1.76593300000000	0.00000000000000	
23.01991300000000	-37.27597000000000	784.53275699999995	55.12816400000000	0.12924300000000	0.00000000000000	0.09198900000000	-10.75500700000000	83.55450999999999	5.11475400000000	0.35732200000000	0.00000000000000	-0.09743400000000	0.00000000000000	20.82419200000000	0.00000000000000	0.00000000000000	1.90364100000000	0.00000000000000	
23.02157900000000	-37.82540700000000	781.60950800000001	54.96571500000000	0.12851900000000	0.00000000000000	0.09192500000000	-10.70329700000000	90.07605000000000	5.21941000000000	0.36082300000000	0.00000000000000	-0.09761600000000	0.00000000000000	20.73789300000000	0.00000000000000	0.00000000000000	2.02946400000000	0.00000000000000	
23.02324500000000	-38.38358200000000	778.54156599999999	54.77310500000000	0.12780800000000	0.00000000000000	0.09185700000000	-10.50887900000000	96.44837800000001	5.27044400000000	0.36410300000000	0.00000000000000	-0.09778300000000	0.00000000000000	20.64886800000000	0.00000000000000	0.00000000000000	2.14308600000000	0.00000000000000	
23.02491200000000	-38.95029900000000	775.32774900000004	54.54988000000000	0.12711100000000	0.00000000000000	0.09178500000000	-10.18669800000000	102.70639700000000	5.27249400000000	0.36718400000000	0.00000000000000	-0.09793600000000	0.00000000000000	20.55716000000000	0.00000000000000	0.00000000000000	2.24467800000000	0.00000000000000	
23.02657700000000	-39.52530300000000	771.96687999999995	54.29565000000000	0.12642800000000	0.00000000000000	0.09170800000000	-9.75321300000000	108.89433000000000	5.23089800000000	0.37008300000000	0.00000000000000	-0.09807800000000	0.00000000000000	20.46280700000000	0.00000000000000	0.00000000000000	2.33476400000000	0.00000000000000	
23.02830000000000	-40.10827600000000	768.45779400000004	54.01009500000000	0.12575900000000	0.00000000000000	0.09162600000000	-9.22500700000000	115.06077900000000	5.15116300000000	0.37281600000000	0.00000000000000	-0.09821100000000	0.00000000000000	20.36584100000000	0.00000000000000	0.00000000000000	2.41407800000000	0.00000000000000	
23.02990700000000	-40.69883400000000	764.79933500000004	53.69296400000000	0.12510300000000	0.00000000000000	0.09154000000000	-8.61763000000000	121.25428200000000	5.03850900000000	0.37539500000000	0.00000000000000	-0.09833600000000	0.00000000000000	20.26629100000000	0.00000000000000	0.00000000000000	2.48343200000000	0.00000000000000	
23.03157600000000	-41.29653100000000	760.99036300000000	53.34408200000000	0.12446100000000	0.00000000000000	0.09145000000000	-7.94471800000000	127.51961799999999	4.89751500000000	0.37783300000000	0.00000000000000	-0.09845500000000	0.00000000000000	20.16417700000000	0.00000000000000	0.00000000000000	2.54359800000000	0.00000000000000	
23.03324100000000	-41.90085200000000	757.02975600000002	52.96334200000000	0.12383300000000	0.00000000000000	0.09135500000000	-7.21741700000000	133.89502200000001	4.73188200000000	0.38013800000000	0.00000000000000	-0.09857000000000	0.00000000000000	20.05951500000000	0.00000000000000	0.00000000000000	2.59521600000000	0.00000000000000	
23.03490600000000	-42.51121600000000	752.91641200000004	52.55071700000000	0.12321800000000	0.00000000000000	0.09125500000000	-6.44409500000000	140.41036500000001	4.54430000000000	0.38231900000000	0.00000000000000	-0.09868000000000	0.00000000000000	19.95231300000000	0.00000000000000	0.00000000000000	2.63873200000000	0.00000000000000	
23.03658100000000	-43.12697100000000	748.64925700000003	52.10625000000000	0.12261700000000	0.00000000000000	0.09115100000000	-5.63031800000000	147.08625400000000	4.33641300000000	0.38438300000000	0.00000000000000	-0.09878800000000	0.00000000000000	19.84257300000000	0.00000000000000	0.00000000000000	2.67435500000000	0.00000000000000	
23.03824100000000	-43.74739900000000	744.22724800000003	51.63006400000000	0.12202900000000	0.00000000000000	0.09104300000000	-4.77904000000000	153.93396300000001	4.10887900000000	0.38633500000000	0.00000000000000	-0.09889300000000	0.00000000000000	19.73028900000000	0.00000000000000	0.00000000000000	2.70205400000000	0.00000000000000	
23.03990600000000	-44.37170800000000	739.64937699999996	51.12235800000000	0.12145300000000	0.00000000000000	0.09093100000000	-3.89095700000000	160.95603900000000	3.86148700000000	0.38818300000000	0.00000000000000	-0.09899700000000	0.00000000000000	19.61545100000000	0.00000000000000	0.00000000000000	2.72156400000000	0.00000000000000	
23.04158100000000	-44.99903900000000	734.91468499999996	50.58340500000000	0.12089100000000	0.00000000000000	0.09081400000000	-2.96497300000000	168.14742699999999	3.59332300000000	0.38992900000000	0.00000000000000	-0.09909900000000	0.00000000000000	19.49803800000000	0.00000000000000	0.00000000000000	2.73241900000000	0.00000000000000	
23.04324100000000	-45.62846300000000	730.02225999999996	50.01355700000000	0.12034000000000	0.00000000000000	0.09069300000000	-1.99870700000000	175.49691700000000	3.30295800000000	0.39157800000000	0.00000000000000	-0.09920000000000	0.00000000000000	19.37802600000000	0.00000000000000	0.00000000000000	2.73399300000000	0.00000000000000	
23.04491100000000	-46.25897800000000	724.97125300000005	49.41324200000000	0.11980000000000	0.00000000000000	0.09056700000000	-0.98901500000000	182.98876100000001	2.98864500000000	0.39313400000000	0.00000000000000	-0.09930200000000	0.00000000000000	19.25538200000000	0.00000000000000	0.00000000000000	2.72554500000000	0.00000000000000	
23.04657700000000	-46.88951500000000	719.76088500000003	48.78296300000000	0.11927200000000	0.00000000000000	0.09043800000000	0.06752500000000	190.60430400000001	2.64850500000000	0.39460000000000	0.00000000000000	-0.09940300000000	0.00000000000000	19.13006800000000	0.00000000000000	0.00000000000000	2.70627600000000	0.00000000000000	
23.04824200000000	-47.51893800000000	714.39045499999997	48.12329700000000	0.11875400000000	0.00000000000000	0.09030500000000	1.17419700000000	198.32350000000000	2.28069500000000	0.39597900000000	0.00000000000000	-0.09950500000000	0.00000000000000	19.00203800000000	0.00000000000000	0.00000000000000	2.67537500000000	0.00000000000000	
23.04990800000000	-48.14604200000000	708.85935500000005	47.43489400000000	0.11824500000000	0.00000000000000	0.09016900000000	2.33380300000000	206.12623400000001	1.88353700000000	0.39727200000000	0.00000000000000	-0.09960700000000	0.00000000000000	18.87124200000000	0.00000000000000	0.00000000000000	2.63206400000000	0.00000000000000	
23.05158700000000	-48.76955700000000	703.16708200000005	46.71847800000000	0.11774600000000	0.00000000000000	0.09002800000000	3.54842200000000	213.99339000000001	1.45562900000000	0.39848200000000	0.00000000000000	-0.09971000000000	0.00000000000000	18.73762300000000	0.00000000000000	0.00000000000000	2.57563200000000	0.00000000000000	
23.05324200000000	-49.38814900000000	697.31324500000005	45.97484100000000	0.11725400000000	0.00000000000000	0.08988400000000	4.81925600000000	221.90763000000001	0.99590800000000	0.39961100000000	0.00000000000000	-0.09981400000000	0.00000000000000	18.60112000000000	0.00000000000000	0.00000000000000	2.50546300000000	0.00000000000000	
23.05491100000000	-50.00042400000000	691.29758700000002	45.20484300000000	0.11677000000000	0.00000000000000	0.08973700000000	6.14656000000000	229.85389300000000	0.50368700000000	0.40066000000000	0.00000000000000	-0.09991800000000	0.00000000000000	18.46166700000000	0.00000000000000	0.00000000000000	2.42106000000000	0.00000000000000	
23.05657800000000	-50.60492600000000	685.11999100000003	44.40941200000000	0.11629200000000	0.00000000000000	0.08958700000000	7.52965100000000	237.81962400000000	-0.02133700000000	0.40163100000000	0.00000000000000	-0.10002400000000	0.00000000000000	18.31919400000000	0.00000000000000	0.00000000000000	2.32204700000000	0.00000000000000	
23.05824000000000	-51.20014500000000	678.78049399999998	43.58953700000000	0.11582000000000	0.00000000000000	0.08943300000000	8.96697100000000	245.79478399999999	-0.57909900000000	0.40252500000000	0.00000000000000	-0.10013200000000	0.00000000000000	18.17362800000000	0.00000000000000	0.00000000000000	2.20817600000000	0.00000000000000	
23.05991100000000	-51.78451700000000	672.27930500000002	42.74626700000000	0.11535100000000	0.00000000000000	0.08927700000000	10.45620100000000	253.77167100000000	-1.16920600000000	0.40334300000000	0.00000000000000	-0.10024000000000	0.00000000000000	18.02489200000000	0.00000000000000	0.00000000000000	2.07932400000000	0.00000000000000	
